<?xml version="1.0" encoding="UTF-8" standalone="no"?>
<!-- Generator: Adobe Illustrator 19.0.0, SVG Export Plug-In . SVG Version: 6.00 Build 0)  -->

<svg
   xmlns:dc="http://purl.org/dc/elements/1.1/"
   xmlns:cc="http://creativecommons.org/ns#"
   xmlns:rdf="http://www.w3.org/1999/02/22-rdf-syntax-ns#"
   xmlns:svg="http://www.w3.org/2000/svg"
   xmlns="http://www.w3.org/2000/svg"
   xmlns:sodipodi="http://sodipodi.sourceforge.net/DTD/sodipodi-0.dtd"
   xmlns:inkscape="http://www.inkscape.org/namespaces/inkscape"
   version="1.1"
   id="Capa_1"
   x="0px"
   y="0px"
   viewBox="0 0 360.49 360.49"
   style="enable-background:new 0 0 360.49 360.49;"
   xml:space="preserve"
   sodipodi:docname="grid-icon.svg"
   inkscape:version="0.92.4 (5da689c313, 2019-01-14)"><metadata
   id="metadata1025"><rdf:RDF><cc:Work
       rdf:about=""><dc:format>image/svg+xml</dc:format><dc:type
         rdf:resource="http://purl.org/dc/dcmitype/StillImage" /></cc:Work></rdf:RDF></metadata><defs
   id="defs1023">
	
</defs><sodipodi:namedview
   pagecolor="#ffffff"
   bordercolor="#666666"
   borderopacity="1"
   objecttolerance="10"
   gridtolerance="10"
   guidetolerance="10"
   inkscape:pageopacity="0"
   inkscape:pageshadow="2"
   inkscape:window-width="1449"
   inkscape:window-height="737"
   id="namedview1021"
   showgrid="false"
   inkscape:zoom="1.309329"
   inkscape:cx="180.89594"
   inkscape:cy="168.69804"
   inkscape:window-x="0"
   inkscape:window-y="0"
   inkscape:window-maximized="0"
   inkscape:current-layer="Capa_1" />
<g
   id="g986"
   style="fill:#e95821;fill-opacity:1">
		<g
   id="g984"
   style="fill:#e95821;fill-opacity:1">
			<path
   inkscape:connector-curvature="0"
   id="path966"
   d="M 96.653,0 H 13.061 C 7.29,0 2.612,4.678 2.612,10.449 v 83.592 c 0,5.771 4.678,10.449 10.449,10.449 h 83.592 c 5.771,0 10.449,-4.678 10.449,-10.449 V 10.449 C 107.102,4.678 102.424,0 96.653,0 Z"
   style="fill:#e95821;fill-opacity:1" />
			<path
   inkscape:connector-curvature="0"
   id="path968"
   d="M 222.041,0 H 138.449 C 132.678,0 128,4.678 128,10.449 v 83.592 c 0,5.771 4.678,10.449 10.449,10.449 h 83.592 c 5.771,0 10.449,-4.678 10.449,-10.449 V 10.449 C 232.49,4.678 227.812,0 222.041,0 Z"
   style="fill:#e95821;fill-opacity:1" />
			<path
   inkscape:connector-curvature="0"
   id="path970"
   d="M 96.653,125.388 H 13.061 c -5.771,0 -10.449,4.678 -10.449,10.449 v 83.592 c 0,5.771 4.678,10.449 10.449,10.449 h 83.592 c 5.771,0 10.449,-4.678 10.449,-10.449 v -83.592 c 0,-5.771 -4.678,-10.449 -10.449,-10.449 z"
   style="fill:#e95821;fill-opacity:1" />
			<path
   inkscape:connector-curvature="0"
   id="path972"
   d="m 222.041,125.388 h -83.592 c -5.771,0 -10.449,4.678 -10.449,10.449 v 83.592 c 0,5.771 4.678,10.449 10.449,10.449 h 83.592 c 5.771,0 10.449,-4.678 10.449,-10.449 v -83.592 c 0,-5.771 -4.678,-10.449 -10.449,-10.449 z"
   style="fill:#e95821;fill-opacity:1" />
			<path
   inkscape:connector-curvature="0"
   id="path974"
   d="m 347.429,0 h -83.592 c -5.771,0 -10.449,4.678 -10.449,10.449 v 83.592 c 0,5.771 4.678,10.449 10.449,10.449 h 83.592 c 5.771,0 10.449,-4.678 10.449,-10.449 V 10.449 C 357.878,4.678 353.199,0 347.429,0 Z"
   style="fill:#e95821;fill-opacity:1" />
			<path
   inkscape:connector-curvature="0"
   id="path976"
   d="m 347.429,125.388 h -83.592 c -5.771,0 -10.449,4.678 -10.449,10.449 v 83.592 c 0,5.771 4.678,10.449 10.449,10.449 h 83.592 c 5.771,0 10.449,-4.678 10.449,-10.449 v -83.592 c 0,-5.771 -4.679,-10.449 -10.449,-10.449 z"
   style="fill:#e95821;fill-opacity:1" />
			<path
   inkscape:connector-curvature="0"
   id="path978"
   d="M 96.653,256 H 13.061 C 7.29,256 2.612,260.678 2.612,266.449 v 83.592 c 0,5.771 4.678,10.449 10.449,10.449 h 83.592 c 5.771,0 10.449,-4.678 10.449,-10.449 V 266.449 C 107.102,260.678 102.424,256 96.653,256 Z"
   style="fill:#e95821;fill-opacity:1" />
			<path
   inkscape:connector-curvature="0"
   id="path980"
   d="M 222.041,256 H 138.449 C 132.678,256 128,260.678 128,266.449 v 83.592 c 0,5.771 4.678,10.449 10.449,10.449 h 83.592 c 5.771,0 10.449,-4.678 10.449,-10.449 V 266.449 C 232.49,260.678 227.812,256 222.041,256 Z"
   style="fill:#e95821;fill-opacity:1" />
			<path
   inkscape:connector-curvature="0"
   id="path982"
   d="m 347.429,256 h -83.592 c -5.771,0 -10.449,4.678 -10.449,10.449 v 83.592 c 0,5.771 4.678,10.449 10.449,10.449 h 83.592 c 5.771,0 10.449,-4.678 10.449,-10.449 v -83.592 c 0,-5.771 -4.679,-10.449 -10.449,-10.449 z"
   style="fill:#e95821;fill-opacity:1" />
		</g>
	</g>
<g
   id="g990">
</g>
<g
   id="g992">
</g>
<g
   id="g994">
</g>
<g
   id="g996">
</g>
<g
   id="g998">
</g>
<g
   id="g1000">
</g>
<g
   id="g1002">
</g>
<g
   id="g1004">
</g>
<g
   id="g1006">
</g>
<g
   id="g1008">
</g>
<g
   id="g1010">
</g>
<g
   id="g1012">
</g>
<g
   id="g1014">
</g>
<g
   id="g1016">
</g>
<g
   id="g1018">
</g>
</svg>